<?xml version="1.0" standalone="no"?>
<!DOCTYPE svg PUBLIC "-//W3C//DTD SVG 20010904//EN"
 "http://www.w3.org/TR/2001/REC-SVG-20010904/DTD/svg10.dtd">
<svg version="1.0" xmlns="http://www.w3.org/2000/svg"
 width="1920.000000pt" height="1920.000000pt" viewBox="0 0 1920.000000 1920.000000"
 preserveAspectRatio="xMidYMid meet">
<metadata>
Created by potrace 1.14, written by Peter Selinger 2001-2017
</metadata>
<g transform="translate(0.000000,1920.000000) scale(0.100000,-0.100000)"
fill="#000000" stroke="none">
<path d="M0 9600 l0 -9600 9600 0 9600 0 0 9600 0 9600 -9600 0 -9600 0 0
-9600z m10075 7669 c1972 -119 3828 -1002 5178 -2464 1118 -1212 1826 -2783
1991 -4420 29 -282 37 -460 37 -785 0 -542 -41 -977 -142 -1485 -349 -1763
-1289 -3329 -2684 -4471 -904 -741 -2012 -1281 -3155 -1538 -585 -132 -1089
-187 -1700 -187 -424 0 -714 20 -1105 77 -1006 145 -1988 496 -2870 1027 -821
493 -1579 1178 -2165 1957 -904 1201 -1429 2623 -1530 4140 -13 201 -13 772 0
965 74 1063 335 2025 805 2965 525 1050 1298 1977 2240 2687 1468 1104 3261
1643 5100 1532z"/>
<path d="M9285 15904 c-1441 -90 -2688 -586 -3780 -1503 -189 -159 -522 -491
-689 -686 -866 -1016 -1371 -2212 -1503 -3560 -24 -253 -24 -857 0 -1110 83
-850 305 -1612 682 -2342 744 -1439 2010 -2535 3542 -3066 l132 -46 10 37 c5
20 60 235 121 477 61 242 131 517 155 610 24 94 85 332 135 530 50 198 111
437 135 530 24 94 100 393 169 665 70 272 184 722 255 1000 l128 506 -76 41
c-163 89 -348 237 -478 383 -499 562 -610 1359 -283 2036 178 369 467 661 835
843 230 115 429 170 691 192 480 42 991 -132 1364 -464 288 -256 494 -610 575
-993 87 -403 36 -817 -145 -1190 -167 -343 -426 -619 -756 -804 l-81 -45 204
-800 c112 -440 260 -1023 329 -1295 69 -272 159 -623 199 -780 40 -157 137
-537 214 -845 78 -308 147 -577 152 -597 l10 -37 132 46 c748 259 1446 660
2052 1179 193 165 506 478 669 669 866 1014 1370 2210 1503 3560 24 252 24
855 0 1110 -131 1340 -622 2512 -1486 3540 -160 190 -491 523 -686 689 -1010
863 -2220 1374 -3550 1501 -161 16 -736 28 -880 19z"/>
</g>
</svg>
